ffmpeg started on 2025-06-23 at 19:42:51
Report written to "D:\Convert\FFMetrics\reports\psnr_report-6.txt"
Log level: 32
Command line:
ffmpeg -hide_banner -nostdin -i "G:\\\xc0\xed\xe8\xec\xe5\\[\xd2\xee\xef-4]\\\xcc\xee\xe6\xe5\xf2, \xff \xe2\xf1\xf2\xf0\xe5\xf7\xf3 \xf2\xe5\xe1\xff \xe2 \xef\xee\xe4\xe7\xe5\xec\xe5\xeb\xfc\xe5\\\xd2\xc2-1\\DanMachi_[03]_[AniLibria_TV]_[HDTVRip_720p]_HEVC.mkv" -i "G:\\\xc0\xed\xe8\xec\xe5\\[\xd2\xee\xef-4]\\\xcc\xee\xe6\xe5\xf2, \xff \xe2\xf1\xf2\xf0\xe5\xf7\xf3 \xf2\xe5\xe1\xff \xe2 \xef\xee\xe4\xe7\xe5\xec\xe5\xeb\xfc\xe5\\\xd2\xc2-1\\DanMachi_[03]_[AniLibria_TV]_[HDTVRip_720p].mkv" -lavfi "[0:v]settb=AVTB,setpts=PTS-STARTPTS,format=pix_fmts=yuv420p10,fps=24000/1001,scale=1280:720:flags=bicubic[main];[1:v]settb=AVTB,setpts=PTS-STARTPTS,format=pix_fmts=yuv420p,fps=24000/1001,scale=1280:720:flags=bicubic[ref];[main][ref]psnr=eof_action=endall:stats_file='D\\:/Convert/FFMetrics/logs/psnr_logfile-6.txt'" -f null -
Input #0, matroska,webm, from 'G:\Аниме\[Топ-4]\Может, я встречу тебя в подземелье\ТВ-1\DanMachi_[03]_[AniLibria_TV]_[HDTVRip_720p]_HEVC.mkv':
  Metadata:
    ENCODER         : Lavf61.7.100
  Duration: 00:23:41.53, start: -0.021000, bitrate: 892 kb/s
  Stream #0:0(jpn): Video: hevc (Main 10), yuv420p10le(tv, bt709, progressive), 1280x720 [SAR 1:1 DAR 16:9], 23.98 fps, 23.98 tbr, 1k tbn (default)
      Metadata:
        title           : Original [HorribleSubs]
        ENCODER         : Lavc61.19.100 libx265
        BPS             : 694058
        DURATION        : 00:23:41.462708375
        NUMBER_OF_FRAMES: 34081
        NUMBER_OF_BYTES : 123322214
        _STATISTICS_WRITING_APP: mkvpropedit v66.0.0 ('Josie') 64-bit
        _STATISTICS_WRITING_DATE_UTC: 2025-06-23 07:41:56
        _STATISTICS_TAGS: BPS DURATION NUMBER_OF_FRAMES NUMBER_OF_BYTES
  Stream #0:1(rus): Audio: aac (LC), 48000 Hz, stereo, fltp (default)
      Metadata:
        title           : Metacarmex & Say
        ENCODER         : Lavc61.19.100 aac
        BPS             : 193880
        DURATION        : 00:23:41.504000000
        NUMBER_OF_FRAMES: 66634
        NUMBER_OF_BYTES : 34450312
        _STATISTICS_WRITING_APP: mkvpropedit v66.0.0 ('Josie') 64-bit
        _STATISTICS_WRITING_DATE_UTC: 2025-06-23 07:41:56
        _STATISTICS_TAGS: BPS DURATION NUMBER_OF_FRAMES NUMBER_OF_BYTES
  Stream #0:2(rus): Subtitle: ass (ssa) (default)
      Metadata:
        title           : Надписи
        BPS             : 2
        DURATION        : 00:21:41.470000000
        NUMBER_OF_FRAMES: 4
        NUMBER_OF_BYTES : 381
        _STATISTICS_WRITING_APP: mkvpropedit v66.0.0 ('Josie') 64-bit
        _STATISTICS_WRITING_DATE_UTC: 2025-06-23 07:41:56
        _STATISTICS_TAGS: BPS DURATION NUMBER_OF_FRAMES NUMBER_OF_BYTES
  Stream #0:3(rus): Subtitle: ass (ssa)
      Metadata:
        title           : Полные
        BPS             : 112
        DURATION        : 00:23:37.840000000
        NUMBER_OF_FRAMES: 303
        NUMBER_OF_BYTES : 19935
        _STATISTICS_WRITING_APP: mkvpropedit v66.0.0 ('Josie') 64-bit
        _STATISTICS_WRITING_DATE_UTC: 2025-06-23 07:41:56
        _STATISTICS_TAGS: BPS DURATION NUMBER_OF_FRAMES NUMBER_OF_BYTES
Input #1, matroska,webm, from 'G:\Аниме\[Топ-4]\Может, я встречу тебя в подземелье\ТВ-1\DanMachi_[03]_[AniLibria_TV]_[HDTVRip_720p].mkv':
  Metadata:
    encoder         : libebml v1.4.2 + libmatroska v1.6.4
    creation_time   : 2025-01-14T16:49:03.000000Z
  Duration: 00:23:41.50, start: 0.000000, bitrate: 1970 kb/s
  Stream #1:0(jpn): Video: h264 (High), yuv420p(progressive), 1280x720, SAR 1:1 DAR 16:9, 23.98 fps, 23.98 tbr, 1k tbn (default)
      Metadata:
        title           : Original [HorribleSubs]
        BPS             : 1773283
        DURATION        : 00:23:41.463000000
        NUMBER_OF_FRAMES: 34081
        NUMBER_OF_BYTES : 315082097
        _STATISTICS_WRITING_APP: mkvmerge v66.0.0 ('Josie') 64-bit
        _STATISTICS_WRITING_DATE_UTC: 2025-01-14 16:49:03
        _STATISTICS_TAGS: BPS DURATION NUMBER_OF_FRAMES NUMBER_OF_BYTES
  Stream #1:1(rus): Audio: aac (LC), 48000 Hz, stereo, fltp (default)
      Metadata:
        title           : Metacarmex & Say
        BPS             : 192091
        DURATION        : 00:23:41.504000000
        NUMBER_OF_FRAMES: 66633
        NUMBER_OF_BYTES : 34132321
        _STATISTICS_WRITING_APP: mkvmerge v66.0.0 ('Josie') 64-bit
        _STATISTICS_WRITING_DATE_UTC: 2025-01-14 16:49:03
        _STATISTICS_TAGS: BPS DURATION NUMBER_OF_FRAMES NUMBER_OF_BYTES
  Stream #1:2(rus): Subtitle: ass (ssa) (default)
      Metadata:
        title           : Надписи
        BPS             : 2
        DURATION        : 00:21:41.470000000
        NUMBER_OF_FRAMES: 4
        NUMBER_OF_BYTES : 381
        _STATISTICS_WRITING_APP: mkvmerge v66.0.0 ('Josie') 64-bit
        _STATISTICS_WRITING_DATE_UTC: 2025-01-14 16:49:03
        _STATISTICS_TAGS: BPS DURATION NUMBER_OF_FRAMES NUMBER_OF_BYTES
  Stream #1:3(rus): Subtitle: ass (ssa)
      Metadata:
        title           : Полные
        BPS             : 112
        DURATION        : 00:23:37.840000000
        NUMBER_OF_FRAMES: 303
        NUMBER_OF_BYTES : 19935
        _STATISTICS_WRITING_APP: mkvmerge v66.0.0 ('Josie') 64-bit
        _STATISTICS_WRITING_DATE_UTC: 2025-01-14 16:49:03
        _STATISTICS_TAGS: BPS DURATION NUMBER_OF_FRAMES NUMBER_OF_BYTES
  Stream #1:4: Attachment: ttf
      Metadata:
        filename        : TkhO4vNj.ttf
        mimetype        : application/x-truetype-font
  Stream #1:5: Attachment: ttf
      Metadata:
        filename        : bonzai.ttf
        mimetype        : application/x-truetype-font
  Stream #1:6: Attachment: ttf
      Metadata:
        filename        : ChinaCyr.ttf
        mimetype        : application/x-truetype-font
  Stream #1:7: Attachment: ttf
      Metadata:
        filename        : OpenSans-Semibold.ttf
        mimetype        : application/x-truetype-font
Stream mapping:
  Stream #0:0 (hevc) -> settb:default
  Stream #1:0 (h264) -> settb:default
  psnr:default -> Stream #0:0 (wrapped_avframe)
  Stream #0:1 -> #0:1 (aac (native) -> pcm_s16le (native))
[swscaler @ 0000019187684600] No accelerated colorspace conversion found from yuv420p to bgr48le.
[swscaler @ 00000191877ec040] No accelerated colorspace conversion found from yuv420p to bgr48le.
[swscaler @ 000001918794bb40] No accelerated colorspace conversion found from yuv420p to bgr48le.
[swscaler @ 0000019187ac1b40] No accelerated colorspace conversion found from yuv420p to bgr48le.
[swscaler @ 0000019187c2a640] No accelerated colorspace conversion found from yuv420p to bgr48le.
[swscaler @ 0000019187d9c7c0] No accelerated colorspace conversion found from yuv420p to bgr48le.
[swscaler @ 0000019187dfb040] No accelerated colorspace conversion found from yuv420p to bgr48le.
[swscaler @ 0000019187e5f740] No accelerated colorspace conversion found from yuv420p to bgr48le.
[swscaler @ 0000019187edc040] No accelerated colorspace conversion found from yuv420p to bgr48le.
[swscaler @ 0000019187f0b700] No accelerated colorspace conversion found from yuv420p to bgr48le.
[swscaler @ 0000019187f77900] No accelerated colorspace conversion found from yuv420p to bgr48le.
[swscaler @ 0000019187fd6040] No accelerated colorspace conversion found from yuv420p to bgr48le.
[swscaler @ 0000019188030000] No accelerated colorspace conversion found from yuv420p to bgr48le.
[swscaler @ 00000191880670c0] No accelerated colorspace conversion found from yuv420p to bgr48le.
[swscaler @ 000001918c16c840] No accelerated colorspace conversion found from yuv420p to bgr48le.
[swscaler @ 000001918c1f9040] No accelerated colorspace conversion found from yuv420p to bgr48le.
Output #0, null, to 'pipe:':
  Metadata:
    encoder         : Lavf61.7.100
  Stream #0:0: Video: wrapped_avframe, yuv420p10le(tv, bt709, progressive), 1280x720 [SAR 1:1 DAR 16:9], q=2-31, 200 kb/s, 23.98 fps, 23.98 tbn
      Metadata:
        encoder         : Lavc61.19.100 wrapped_avframe
  Stream #0:1(rus): Audio: pcm_s16le, 48000 Hz, stereo, s16, 1536 kb/s (default)
      Metadata:
        title           : Metacarmex & Say
        _STATISTICS_TAGS: BPS DURATION NUMBER_OF_FRAMES NUMBER_OF_BYTES
        BPS             : 193880
        DURATION        : 00:23:41.504000000
        NUMBER_OF_FRAMES: 66634
        NUMBER_OF_BYTES : 34450312
        _STATISTICS_WRITING_APP: mkvpropedit v66.0.0 ('Josie') 64-bit
        _STATISTICS_WRITING_DATE_UTC: 2025-06-23 07:41:56
        encoder         : Lavc61.19.100 pcm_s16le
frame=   90 fps=0.0 q=-0.0 size=N/A time=00:00:03.75 bitrate=N/A speed=7.09x    frame=  192 fps=185 q=-0.0 size=N/A time=00:00:08.00 bitrate=N/A speed= 7.7x    frame=  294 fps=190 q=-0.0 size=N/A time=00:00:12.26 bitrate=N/A speed=7.91x    frame=  398 fps=192 q=-0.0 size=N/A time=00:00:16.59 bitrate=N/A speed=7.99x    frame=  487 fps=188 q=-0.0 size=N/A time=00:00:20.31 bitrate=N/A speed=7.86x    frame=  598 fps=193 q=-0.0 size=N/A time=00:00:24.94 bitrate=N/A speed=8.06x    frame=  706 fps=195 q=-0.0 size=N/A time=00:00:29.44 bitrate=N/A speed=8.14x    frame=  808 fps=196 q=-0.0 size=N/A time=00:00:33.70 bitrate=N/A speed=8.17x    frame=  915 fps=197 q=-0.0 size=N/A time=00:00:38.16 bitrate=N/A speed= 8.2x    frame= 1020 fps=198 q=-0.0 size=N/A time=00:00:42.54 bitrate=N/A speed=8.24x    frame= 1123 fps=198 q=-0.0 size=N/A time=00:00:46.83 bitrate=N/A speed=8.26x    frame= 1229 fps=198 q=-0.0 size=N/A time=00:00:51.25 bitrate=N/A speed=8.27x    frame= 1331 fps=198 q=-0.0 size=N/A time=00:00:55.51 bitrate=N/A speed=8.27x    frame= 1437 fps=199 q=-0.0 size=N/A time=00:00:59.93 bitrate=N/A speed= 8.3x    frame= 1541 fps=199 q=-0.0 size=N/A time=00:01:04.27 bitrate=N/A speed= 8.3x    frame= 1649 fps=200 q=-0.0 size=N/A time=00:01:08.77 bitrate=N/A speed=8.33x    frame= 1745 fps=199 q=-0.0 size=N/A time=00:01:12.78 bitrate=N/A speed= 8.3x    frame= 1846 fps=199 q=-0.0 size=N/A time=00:01:16.99 bitrate=N/A speed=8.29x    frame= 1948 fps=199 q=-0.0 size=N/A time=00:01:21.24 bitrate=N/A speed=8.29x    frame= 2044 fps=198 q=-0.0 size=N/A time=00:01:25.25 bitrate=N/A speed=8.26x    frame= 2157 fps=199 q=-0.0 size=N/A time=00:01:29.96 bitrate=N/A speed=8.31x    frame= 2260 fps=199 q=-0.0 size=N/A time=00:01:34.26 bitrate=N/A speed=8.31x    frame= 2367 fps=199 q=-0.0 size=N/A time=00:01:38.72 bitrate=N/A speed=8.32x    frame= 2471 fps=200 q=-0.0 size=N/A time=00:01:43.06 bitrate=N/A speed=8.33x    frame= 2566 fps=199 q=-0.0 size=N/A time=00:01:47.02 bitrate=N/A speed= 8.3x    frame= 2673 fps=199 q=-0.0 size=N/A time=00:01:51.48 bitrate=N/A speed=8.31x    frame= 2774 fps=199 q=-0.0 size=N/A time=00:01:55.69 bitrate=N/A speed=8.31x    frame= 2879 fps=199 q=-0.0 size=N/A time=00:02:00.07 bitrate=N/A speed=8.31x    frame= 2984 fps=199 q=-0.0 size=N/A time=00:02:04.45 bitrate=N/A speed=8.32x    frame= 3088 fps=199 q=-0.0 size=N/A time=00:02:08.79 bitrate=N/A speed=8.32x    frame= 3182 fps=199 q=-0.0 size=N/A time=00:02:12.71 bitrate=N/A speed= 8.3x    frame= 3289 fps=199 q=-0.0 size=N/A time=00:02:17.17 bitrate=N/A speed=8.31x    frame= 3394 fps=199 q=-0.0 size=N/A time=00:02:21.55 bitrate=N/A speed=8.31x    frame= 3494 fps=199 q=-0.0 size=N/A time=00:02:25.72 bitrate=N/A speed=8.31x    frame= 3581 fps=198 q=-0.0 size=N/A time=00:02:29.35 bitrate=N/A speed=8.28x    frame= 3680 fps=198 q=-0.0 size=N/A time=00:02:33.48 bitrate=N/A speed=8.27x    frame= 3783 fps=198 q=-0.0 size=N/A time=00:02:37.78 bitrate=N/A speed=8.27x    frame= 3884 fps=198 q=-0.0 size=N/A time=00:02:41.99 bitrate=N/A speed=8.26x    frame= 3990 fps=198 q=-0.0 size=N/A time=00:02:46.41 bitrate=N/A speed=8.27x    frame= 4092 fps=198 q=-0.0 size=N/A time=00:02:50.67 bitrate=N/A speed=8.27x    frame= 4185 fps=198 q=-0.0 size=N/A time=00:02:54.54 bitrate=N/A speed=8.25x    frame= 4291 fps=198 q=-0.0 size=N/A time=00:02:58.97 bitrate=N/A speed=8.26x    frame= 4394 fps=198 q=-0.0 size=N/A time=00:03:03.26 bitrate=N/A speed=8.26x    frame= 4497 fps=198 q=-0.0 size=N/A time=00:03:07.56 bitrate=N/A speed=8.27x    frame= 4600 fps=198 q=-0.0 size=N/A time=00:03:11.85 bitrate=N/A speed=8.26x    frame= 4693 fps=198 q=-0.0 size=N/A time=00:03:15.73 bitrate=N/A speed=8.25x    frame= 4800 fps=198 q=-0.0 size=N/A time=00:03:20.20 bitrate=N/A speed=8.26x    frame= 4897 fps=198 q=-0.0 size=N/A time=00:03:24.24 bitrate=N/A speed=8.25x    frame= 4999 fps=198 q=-0.0 size=N/A time=00:03:28.49 bitrate=N/A speed=8.25x    frame= 5092 fps=197 q=-0.0 size=N/A time=00:03:32.37 bitrate=N/A speed=8.24x    frame= 5203 fps=198 q=-0.0 size=N/A time=00:03:37.00 bitrate=N/A speed=8.25x    frame= 5307 fps=198 q=-0.0 size=N/A time=00:03:41.34 bitrate=N/A speed=8.25x    frame= 5408 fps=198 q=-0.0 size=N/A time=00:03:45.55 bitrate=N/A speed=8.25x    frame= 5509 fps=198 q=-0.0 size=N/A time=00:03:49.77 bitrate=N/A speed=8.25x    frame= 5611 fps=198 q=-0.0 size=N/A time=00:03:54.02 bitrate=N/A speed=8.25x    frame= 5717 fps=198 q=-0.0 size=N/A time=00:03:58.44 bitrate=N/A speed=8.26x    frame= 5816 fps=198 q=-0.0 size=N/A time=00:04:02.57 bitrate=N/A speed=8.25x    frame= 5914 fps=198 q=-0.0 size=N/A time=00:04:06.66 bitrate=N/A speed=8.25x    frame= 6022 fps=198 q=-0.0 size=N/A time=00:04:11.16 bitrate=N/A speed=8.26x    frame= 6122 fps=198 q=-0.0 size=N/A time=00:04:15.33 bitrate=N/A speed=8.25x    frame= 6233 fps=198 q=-0.0 size=N/A time=00:04:19.96 bitrate=N/A speed=8.26x    frame= 6327 fps=198 q=-0.0 size=N/A time=00:04:23.88 bitrate=N/A speed=8.25x    frame= 6433 fps=198 q=-0.0 size=N/A time=00:04:28.30 bitrate=N/A speed=8.26x    frame= 6536 fps=198 q=-0.0 size=N/A time=00:04:32.60 bitrate=N/A speed=8.26x    frame= 6626 fps=198 q=-0.0 size=N/A time=00:04:36.35 bitrate=N/A speed=8.24x    frame= 6736 fps=198 q=-0.0 size=N/A time=00:04:40.94 bitrate=N/A speed=8.26x    frame= 6834 fps=198 q=-0.0 size=N/A time=00:04:45.03 bitrate=N/A speed=8.25x    frame= 6936 fps=198 q=-0.0 size=N/A time=00:04:49.28 bitrate=N/A speed=8.25x    frame= 7035 fps=198 q=-0.0 size=N/A time=00:04:53.41 bitrate=N/A speed=8.25x    frame= 7139 fps=198 q=-0.0 size=N/A time=00:04:57.75 bitrate=N/A speed=8.25x    frame= 7235 fps=198 q=-0.0 size=N/A time=00:05:01.75 bitrate=N/A speed=8.24x    frame= 7343 fps=198 q=-0.0 size=N/A time=00:05:06.26 bitrate=N/A speed=8.25x    frame= 7445 fps=198 q=-0.0 size=N/A time=00:05:10.51 bitrate=N/A speed=8.25x    frame= 7538 fps=198 q=-0.0 size=N/A time=00:05:14.39 bitrate=N/A speed=8.24x    frame= 7637 fps=197 q=-0.0 size=N/A time=00:05:18.52 bitrate=N/A speed=8.23x    frame= 7735 fps=197 q=-0.0 size=N/A time=00:05:22.61 bitrate=N/A speed=8.23x    frame= 7849 fps=198 q=-0.0 size=N/A time=00:05:27.36 bitrate=N/A speed=8.25x    frame= 7940 fps=197 q=-0.0 size=N/A time=00:05:31.16 bitrate=N/A speed=8.23x    frame= 8041 fps=197 q=-0.0 size=N/A time=00:05:35.37 bitrate=N/A speed=8.23x    frame= 8153 fps=198 q=-0.0 size=N/A time=00:05:40.04 bitrate=N/A speed=8.24x    frame= 8257 fps=198 q=-0.0 size=N/A time=00:05:44.38 bitrate=N/A speed=8.24x    frame= 8352 fps=197 q=-0.0 size=N/A time=00:05:48.34 bitrate=N/A speed=8.24x    frame= 8458 fps=198 q=-0.0 size=N/A time=00:05:52.76 bitrate=N/A speed=8.24x    frame= 8564 fps=198 q=-0.0 size=N/A time=00:05:57.19 bitrate=N/A speed=8.24x    frame= 8661 fps=198 q=-0.0 size=N/A time=00:06:01.23 bitrate=N/A speed=8.24x    frame= 8763 fps=198 q=-0.0 size=N/A time=00:06:05.49 bitrate=N/A speed=8.24x    frame= 8864 fps=198 q=-0.0 size=N/A time=00:06:09.70 bitrate=N/A speed=8.24x    frame= 8964 fps=198 q=-0.0 size=N/A time=00:06:13.87 bitrate=N/A speed=8.24x    frame= 9067 fps=198 q=-0.0 size=N/A time=00:06:18.16 bitrate=N/A speed=8.24x    frame= 9165 fps=197 q=-0.0 size=N/A time=00:06:22.25 bitrate=N/A speed=8.24x    frame= 9267 fps=197 q=-0.0 size=N/A time=00:06:26.51 bitrate=N/A speed=8.24x    frame= 9356 fps=197 q=-0.0 size=N/A time=00:06:30.22 bitrate=N/A speed=8.23x    frame= 9471 fps=197 q=-0.0 size=N/A time=00:06:35.01 bitrate=N/A speed=8.24x    frame= 9567 fps=197 q=-0.0 size=N/A time=00:06:39.02 bitrate=N/A speed=8.23x    frame= 9664 fps=197 q=-0.0 size=N/A time=00:06:43.06 bitrate=N/A speed=8.23x    frame= 9775 fps=197 q=-0.0 size=N/A time=00:06:47.69 bitrate=N/A speed=8.23x    frame= 9880 fps=198 q=-0.0 size=N/A time=00:06:52.07 bitrate=N/A speed=8.24x    frame= 9975 fps=197 q=-0.0 size=N/A time=00:06:56.04 bitrate=N/A speed=8.23x    frame=10079 fps=197 q=-0.0 size=N/A time=00:07:00.37 bitrate=N/A speed=8.23x    frame=10191 fps=198 q=-0.0 size=N/A time=00:07:05.04 bitrate=N/A speed=8.24x    frame=10296 fps=198 q=-0.0 size=N/A time=00:07:09.42 bitrate=N/A speed=8.24x    frame=10392 fps=198 q=-0.0 size=N/A time=00:07:13.43 bitrate=N/A speed=8.24x    frame=10491 fps=198 q=-0.0 size=N/A time=00:07:17.56 bitrate=N/A speed=8.24x    frame=10597 fps=198 q=-0.0 size=N/A time=00:07:21.98 bitrate=N/A speed=8.24x    frame=10704 fps=198 q=-0.0 size=N/A time=00:07:26.44 bitrate=N/A speed=8.25x    frame=10814 fps=198 q=-0.0 size=N/A time=00:07:31.03 bitrate=N/A speed=8.25x    frame=10914 fps=198 q=-0.0 size=N/A time=00:07:35.20 bitrate=N/A speed=8.25x    frame=11015 fps=198 q=-0.0 size=N/A time=00:07:39.41 bitrate=N/A speed=8.25x    frame=11114 fps=198 q=-0.0 size=N/A time=00:07:43.54 bitrate=N/A speed=8.25x    frame=11215 fps=198 q=-0.0 size=N/A time=00:07:47.75 bitrate=N/A speed=8.25x    frame=11318 fps=198 q=-0.0 size=N/A time=00:07:52.05 bitrate=N/A speed=8.25x    frame=11423 fps=198 q=-0.0 size=N/A time=00:07:56.43 bitrate=N/A speed=8.25x    frame=11525 fps=198 q=-0.0 size=N/A time=00:08:00.68 bitrate=N/A speed=8.25x    frame=11630 fps=198 q=-0.0 size=N/A time=00:08:05.06 bitrate=N/A speed=8.25x    frame=11722 fps=198 q=-0.0 size=N/A time=00:08:08.90 bitrate=N/A speed=8.24x    frame=11829 fps=198 q=-0.0 size=N/A time=00:08:13.36 bitrate=N/A speed=8.25x    frame=11928 fps=198 q=-0.0 size=N/A time=00:08:17.49 bitrate=N/A speed=8.25x    frame=12029 fps=198 q=-0.0 size=N/A time=00:08:21.70 bitrate=N/A speed=8.25x    frame=12130 fps=198 q=-0.0 size=N/A time=00:08:25.92 bitrate=N/A speed=8.24x    frame=12234 fps=198 q=-0.0 size=N/A time=00:08:30.25 bitrate=N/A speed=8.25x    frame=12327 fps=198 q=-0.0 size=N/A time=00:08:34.13 bitrate=N/A speed=8.24x    frame=12425 fps=197 q=-0.0 size=N/A time=00:08:38.22 bitrate=N/A speed=8.24x    frame=12524 fps=197 q=-0.0 size=N/A time=00:08:42.35 bitrate=N/A speed=8.24x    frame=12631 fps=198 q=-0.0 size=N/A time=00:08:46.81 bitrate=N/A speed=8.24x    frame=12726 fps=197 q=-0.0 size=N/A time=00:08:50.78 bitrate=N/A speed=8.23x    frame=12817 fps=197 q=-0.0 size=N/A time=00:08:54.57 bitrate=N/A speed=8.23x    frame=12919 fps=197 q=-0.0 size=N/A time=00:08:58.82 bitrate=N/A speed=8.23x    frame=13034 fps=197 q=-0.0 size=N/A time=00:09:03.62 bitrate=N/A speed=8.24x    frame=13132 fps=197 q=-0.0 size=N/A time=00:09:07.71 bitrate=N/A speed=8.23x    frame=13245 fps=198 q=-0.0 size=N/A time=00:09:12.42 bitrate=N/A speed=8.24x    frame=13345 fps=198 q=-0.0 size=N/A time=00:09:16.59 bitrate=N/A speed=8.24x    frame=13440 fps=197 q=-0.0 size=N/A time=00:09:20.56 bitrate=N/A speed=8.24x    frame=13539 fps=197 q=-0.0 size=N/A time=00:09:24.68 bitrate=N/A speed=8.23x    frame=13631 fps=197 q=-0.0 size=N/A time=00:09:28.52 bitrate=N/A speed=8.23x    frame=13740 fps=197 q=-0.0 size=N/A time=00:09:33.07 bitrate=N/A speed=8.23x    frame=13842 fps=197 q=-0.0 size=N/A time=00:09:37.32 bitrate=N/A speed=8.23x    frame=13936 fps=197 q=-0.0 size=N/A time=00:09:41.24 bitrate=N/A speed=8.23x    frame=14036 fps=197 q=-0.0 size=N/A time=00:09:45.41 bitrate=N/A speed=8.23x    frame=14141 fps=197 q=-0.0 size=N/A time=00:09:49.79 bitrate=N/A speed=8.23x    frame=14241 fps=197 q=-0.0 size=N/A time=00:09:53.96 bitrate=N/A speed=8.23x    frame=14334 fps=197 q=-0.0 size=N/A time=00:09:57.84 bitrate=N/A speed=8.22x    frame=14437 fps=197 q=-0.0 size=N/A time=00:10:02.14 bitrate=N/A speed=8.22x    frame=14538 fps=197 q=-0.0 size=N/A time=00:10:06.35 bitrate=N/A speed=8.22x    frame=14633 fps=197 q=-0.0 size=N/A time=00:10:10.31 bitrate=N/A speed=8.22x    frame=14724 fps=197 q=-0.0 size=N/A time=00:10:14.11 bitrate=N/A speed=8.21x    frame=14831 fps=197 q=-0.0 size=N/A time=00:10:18.57 bitrate=N/A speed=8.21x    frame=14921 fps=197 q=-0.0 size=N/A time=00:10:22.33 bitrate=N/A speed=8.21x    frame=15033 fps=197 q=-0.0 size=N/A time=00:10:27.00 bitrate=N/A speed=8.21x    frame=15130 fps=197 q=-0.0 size=N/A time=00:10:31.04 bitrate=N/A speed=8.21x    frame=15235 fps=197 q=-0.0 size=N/A time=00:10:35.42 bitrate=N/A speed=8.21x    frame=15336 fps=197 q=-0.0 size=N/A time=00:10:39.63 bitrate=N/A speed=8.21x    frame=15438 fps=197 q=-0.0 size=N/A time=00:10:43.89 bitrate=N/A speed=8.21x    frame=15534 fps=197 q=-0.0 size=N/A time=00:10:47.89 bitrate=N/A speed=8.21x    frame=15641 fps=197 q=-0.0 size=N/A time=00:10:52.36 bitrate=N/A speed=8.21x    frame=15738 fps=197 q=-0.0 size=N/A time=00:10:56.40 bitrate=N/A speed=8.21x    frame=15849 fps=197 q=-0.0 size=N/A time=00:11:01.03 bitrate=N/A speed=8.21x    frame=15951 fps=197 q=-0.0 size=N/A time=00:11:05.28 bitrate=N/A speed=8.21x    frame=16037 fps=197 q=-0.0 size=N/A time=00:11:08.87 bitrate=N/A speed=8.21x    frame=16151 fps=197 q=-0.0 size=N/A time=00:11:13.63 bitrate=N/A speed=8.21x    frame=16252 fps=197 q=-0.0 size=N/A time=00:11:17.84 bitrate=N/A speed=8.21x    frame=16352 fps=197 q=-0.0 size=N/A time=00:11:22.01 bitrate=N/A speed=8.21x    frame=16449 fps=197 q=-0.0 size=N/A time=00:11:26.06 bitrate=N/A speed=8.21x    frame=16552 fps=197 q=-0.0 size=N/A time=00:11:30.35 bitrate=N/A speed=8.21x    frame=16653 fps=197 q=-0.0 size=N/A time=00:11:34.56 bitrate=N/A speed=8.21x    frame=16752 fps=197 q=-0.0 size=N/A time=00:11:38.69 bitrate=N/A speed=8.21x    frame=16852 fps=197 q=-0.0 size=N/A time=00:11:42.86 bitrate=N/A speed=8.21x    frame=16947 fps=197 q=-0.0 size=N/A time=00:11:46.83 bitrate=N/A speed=8.21x    frame=17044 fps=197 q=-0.0 size=N/A time=00:11:50.87 bitrate=N/A speed= 8.2x    frame=17145 fps=197 q=-0.0 size=N/A time=00:11:55.08 bitrate=N/A speed= 8.2x    frame=17241 fps=197 q=-0.0 size=N/A time=00:11:59.09 bitrate=N/A speed= 8.2x    frame=17333 fps=197 q=-0.0 size=N/A time=00:12:02.93 bitrate=N/A speed= 8.2x    frame=17432 fps=196 q=-0.0 size=N/A time=00:12:07.05 bitrate=N/A speed=8.19x    frame=17534 fps=196 q=-0.0 size=N/A time=00:12:11.31 bitrate=N/A speed= 8.2x    frame=17616 fps=196 q=-0.0 size=N/A time=00:12:14.73 bitrate=N/A speed=8.19x    frame=17728 fps=196 q=-0.0 size=N/A time=00:12:19.40 bitrate=N/A speed=8.19x    frame=17827 fps=196 q=-0.0 size=N/A time=00:12:23.53 bitrate=N/A speed=8.19x    frame=17928 fps=196 q=-0.0 size=N/A time=00:12:27.74 bitrate=N/A speed=8.19x    frame=18031 fps=196 q=-0.0 size=N/A time=00:12:32.04 bitrate=N/A speed=8.19x    frame=18134 fps=196 q=-0.0 size=N/A time=00:12:36.33 bitrate=N/A speed=8.19x    frame=18241 fps=196 q=-0.0 size=N/A time=00:12:40.80 bitrate=N/A speed=8.19x    frame=18331 fps=196 q=-0.0 size=N/A time=00:12:44.55 bitrate=N/A speed=8.19x    frame=18437 fps=196 q=-0.0 size=N/A time=00:12:48.97 bitrate=N/A speed=8.19x    frame=18529 fps=196 q=-0.0 size=N/A time=00:12:52.81 bitrate=N/A speed=8.19x    frame=18638 fps=196 q=-0.0 size=N/A time=00:12:57.35 bitrate=N/A speed=8.19x    frame=18742 fps=196 q=-0.0 size=N/A time=00:13:01.69 bitrate=N/A speed=8.19x    frame=18843 fps=196 q=-0.0 size=N/A time=00:13:05.91 bitrate=N/A speed=8.19x    frame=18946 fps=196 q=-0.0 size=N/A time=00:13:10.20 bitrate=N/A speed=8.19x    frame=19037 fps=196 q=-0.0 size=N/A time=00:13:14.00 bitrate=N/A speed=8.19x    frame=19143 fps=196 q=-0.0 size=N/A time=00:13:18.42 bitrate=N/A speed=8.19x    frame=19249 fps=196 q=-0.0 size=N/A time=00:13:22.84 bitrate=N/A speed=8.19x    frame=19352 fps=196 q=-0.0 size=N/A time=00:13:27.13 bitrate=N/A speed=8.19x    frame=19454 fps=196 q=-0.0 size=N/A time=00:13:31.39 bitrate=N/A speed=8.19x    frame=19554 fps=196 q=-0.0 size=N/A time=00:13:35.56 bitrate=N/A speed=8.19x    frame=19657 fps=196 q=-0.0 size=N/A time=00:13:39.86 bitrate=N/A speed=8.19x    frame=19758 fps=196 q=-0.0 size=N/A time=00:13:44.07 bitrate=N/A speed=8.19x    frame=19857 fps=196 q=-0.0 size=N/A time=00:13:48.20 bitrate=N/A speed=8.19x    frame=19967 fps=196 q=-0.0 size=N/A time=00:13:52.79 bitrate=N/A speed= 8.2x    frame=20068 fps=196 q=-0.0 size=N/A time=00:13:57.00 bitrate=N/A speed= 8.2x    frame=20166 fps=196 q=-0.0 size=N/A time=00:14:01.09 bitrate=N/A speed=8.19x    frame=20259 fps=196 q=-0.0 size=N/A time=00:14:04.96 bitrate=N/A speed=8.19x    frame=20377 fps=197 q=-0.0 size=N/A time=00:14:09.89 bitrate=N/A speed= 8.2x    frame=20480 fps=197 q=-0.0 size=N/A time=00:14:14.18 bitrate=N/A speed= 8.2x    frame=20580 fps=197 q=-0.0 size=N/A time=00:14:18.35 bitrate=N/A speed= 8.2x    frame=20682 fps=197 q=-0.0 size=N/A time=00:14:22.61 bitrate=N/A speed= 8.2x    frame=20775 fps=196 q=-0.0 size=N/A time=00:14:26.49 bitrate=N/A speed=8.19x    frame=20879 fps=197 q=-0.0 size=N/A time=00:14:30.82 bitrate=N/A speed= 8.2x    frame=20974 fps=196 q=-0.0 size=N/A time=00:14:34.79 bitrate=N/A speed=8.19x    frame=21076 fps=196 q=-0.0 size=N/A time=00:14:39.04 bitrate=N/A speed=8.19x    frame=21168 fps=196 q=-0.0 size=N/A time=00:14:42.88 bitrate=N/A speed=8.19x    frame=21278 fps=196 q=-0.0 size=N/A time=00:14:47.46 bitrate=N/A speed=8.19x    frame=21371 fps=196 q=-0.0 size=N/A time=00:14:51.34 bitrate=N/A speed=8.19x    frame=21473 fps=196 q=-0.0 size=N/A time=00:14:55.60 bitrate=N/A speed=8.19x    frame=21564 fps=196 q=-0.0 size=N/A time=00:14:59.39 bitrate=N/A speed=8.19x    frame=21663 fps=196 q=-0.0 size=N/A time=00:15:03.52 bitrate=N/A speed=8.19x    frame=21756 fps=196 q=-0.0 size=N/A time=00:15:07.40 bitrate=N/A speed=8.18x    frame=21854 fps=196 q=-0.0 size=N/A time=00:15:11.49 bitrate=N/A speed=8.18x    frame=21948 fps=196 q=-0.0 size=N/A time=00:15:15.41 bitrate=N/A speed=8.18x    frame=22052 fps=196 q=-0.0 size=N/A time=00:15:19.75 bitrate=N/A speed=8.18x    frame=22147 fps=196 q=-0.0 size=N/A time=00:15:23.71 bitrate=N/A speed=8.18x    frame=22250 fps=196 q=-0.0 size=N/A time=00:15:28.01 bitrate=N/A speed=8.18x    frame=22346 fps=196 q=-0.0 size=N/A time=00:15:32.01 bitrate=N/A speed=8.18x    frame=22445 fps=196 q=-0.0 size=N/A time=00:15:36.14 bitrate=N/A speed=8.18x    frame=22536 fps=196 q=-0.0 size=N/A time=00:15:39.93 bitrate=N/A speed=8.17x    frame=22632 fps=196 q=-0.0 size=N/A time=00:15:43.94 bitrate=N/A speed=8.17x    frame=22734 fps=196 q=-0.0 size=N/A time=00:15:48.19 bitrate=N/A speed=8.17x    frame=22828 fps=196 q=-0.0 size=N/A time=00:15:52.11 bitrate=N/A speed=8.17x    frame=22927 fps=196 q=-0.0 size=N/A time=00:15:56.24 bitrate=N/A speed=8.17x    frame=23024 fps=196 q=-0.0 size=N/A time=00:16:00.29 bitrate=N/A speed=8.16x    frame=23117 fps=196 q=-0.0 size=N/A time=00:16:04.17 bitrate=N/A speed=8.16x    frame=23220 fps=196 q=-0.0 size=N/A time=00:16:08.46 bitrate=N/A speed=8.16x    frame=23321 fps=196 q=-0.0 size=N/A time=00:16:12.68 bitrate=N/A speed=8.16x    frame=23419 fps=196 q=-0.0 size=N/A time=00:16:16.76 bitrate=N/A speed=8.16x    frame=23515 fps=196 q=-0.0 size=N/A time=00:16:20.77 bitrate=N/A speed=8.16x    frame=23624 fps=196 q=-0.0 size=N/A time=00:16:25.31 bitrate=N/A speed=8.16x    frame=23719 fps=196 q=-0.0 size=N/A time=00:16:29.27 bitrate=N/A speed=8.16x    frame=23819 fps=196 q=-0.0 size=N/A time=00:16:33.45 bitrate=N/A speed=8.16x    frame=23919 fps=196 q=-0.0 size=N/A time=00:16:37.62 bitrate=N/A speed=8.16x    frame=24021 fps=196 q=-0.0 size=N/A time=00:16:41.87 bitrate=N/A speed=8.16x    frame=24123 fps=196 q=-0.0 size=N/A time=00:16:46.13 bitrate=N/A speed=8.16x    frame=24220 fps=196 q=-0.0 size=N/A time=00:16:50.17 bitrate=N/A speed=8.16x    frame=24320 fps=196 q=-0.0 size=N/A time=00:16:54.34 bitrate=N/A speed=8.16x    frame=24424 fps=196 q=-0.0 size=N/A time=00:16:58.68 bitrate=N/A speed=8.16x    frame=24519 fps=196 q=-0.0 size=N/A time=00:17:02.64 bitrate=N/A speed=8.16x    frame=24623 fps=196 q=-0.0 size=N/A time=00:17:06.98 bitrate=N/A speed=8.16x    frame=24725 fps=196 q=-0.0 size=N/A time=00:17:11.23 bitrate=N/A speed=8.16x    frame=24823 fps=196 q=-0.0 size=N/A time=00:17:15.32 bitrate=N/A speed=8.16x    frame=24919 fps=196 q=-0.0 size=N/A time=00:17:19.32 bitrate=N/A speed=8.16x    frame=25019 fps=196 q=-0.0 size=N/A time=00:17:23.50 bitrate=N/A speed=8.16x    frame=25116 fps=196 q=-0.0 size=N/A time=00:17:27.54 bitrate=N/A speed=8.16x    frame=25220 fps=196 q=-0.0 size=N/A time=00:17:31.88 bitrate=N/A speed=8.16x    frame=25319 fps=196 q=-0.0 size=N/A time=00:17:36.01 bitrate=N/A speed=8.16x    frame=25422 fps=196 q=-0.0 size=N/A time=00:17:40.30 bitrate=N/A speed=8.16x    frame=25514 fps=195 q=-0.0 size=N/A time=00:17:44.14 bitrate=N/A speed=8.15x    frame=25614 fps=196 q=-0.0 size=N/A time=00:17:48.31 bitrate=N/A speed=8.15x    frame=25718 fps=196 q=-0.0 size=N/A time=00:17:52.65 bitrate=N/A speed=8.15x    frame=25821 fps=196 q=-0.0 size=N/A time=00:17:56.95 bitrate=N/A speed=8.16x    frame=25922 fps=196 q=-0.0 size=N/A time=00:18:01.16 bitrate=N/A speed=8.16x    frame=26026 fps=196 q=-0.0 size=N/A time=00:18:05.50 bitrate=N/A speed=8.16x    frame=26131 fps=196 q=-0.0 size=N/A time=00:18:09.88 bitrate=N/A speed=8.16x    frame=26234 fps=196 q=-0.0 size=N/A time=00:18:14.17 bitrate=N/A speed=8.16x    frame=26331 fps=196 q=-0.0 size=N/A time=00:18:18.22 bitrate=N/A speed=8.16x    frame=26432 fps=196 q=-0.0 size=N/A time=00:18:22.43 bitrate=N/A speed=8.16x    frame=26524 fps=196 q=-0.0 size=N/A time=00:18:26.27 bitrate=N/A speed=8.15x    frame=26629 fps=196 q=-0.0 size=N/A time=00:18:30.65 bitrate=N/A speed=8.16x    frame=26724 fps=196 q=-0.0 size=N/A time=00:18:34.61 bitrate=N/A speed=8.15x    frame=26834 fps=196 q=-0.0 size=N/A time=00:18:39.20 bitrate=N/A speed=8.16x    frame=26933 fps=196 q=-0.0 size=N/A time=00:18:43.33 bitrate=N/A speed=8.16x    frame=27033 fps=196 q=-0.0 size=N/A time=00:18:47.50 bitrate=N/A speed=8.16x    frame=27130 fps=196 q=-0.0 size=N/A time=00:18:51.54 bitrate=N/A speed=8.15x    frame=27227 fps=195 q=-0.0 size=N/A time=00:18:55.59 bitrate=N/A speed=8.15x    frame=27332 fps=196 q=-0.0 size=N/A time=00:18:59.97 bitrate=N/A speed=8.15x    frame=27434 fps=196 q=-0.0 size=N/A time=00:19:04.22 bitrate=N/A speed=8.16x    frame=27531 fps=195 q=-0.0 size=N/A time=00:19:08.27 bitrate=N/A speed=8.15x    frame=27635 fps=196 q=-0.0 size=N/A time=00:19:12.60 bitrate=N/A speed=8.16x    frame=27737 fps=196 q=-0.0 size=N/A time=00:19:16.86 bitrate=N/A speed=8.16x    frame=27833 fps=196 q=-0.0 size=N/A time=00:19:20.86 bitrate=N/A speed=8.15x    frame=27930 fps=195 q=-0.0 size=N/A time=00:19:24.91 bitrate=N/A speed=8.15x    frame=28032 fps=195 q=-0.0 size=N/A time=00:19:29.16 bitrate=N/A speed=8.15x    frame=28139 fps=196 q=-0.0 size=N/A time=00:19:33.63 bitrate=N/A speed=8.16x    frame=28240 fps=196 q=-0.0 size=N/A time=00:19:37.84 bitrate=N/A speed=8.16x    frame=28327 fps=195 q=-0.0 size=N/A time=00:19:41.47 bitrate=N/A speed=8.15x    frame=28426 fps=195 q=-0.0 size=N/A time=00:19:45.60 bitrate=N/A speed=8.15x    frame=28541 fps=196 q=-0.0 size=N/A time=00:19:50.39 bitrate=N/A speed=8.15x    frame=28647 fps=196 q=-0.0 size=N/A time=00:19:54.81 bitrate=N/A speed=8.16x    frame=28734 fps=195 q=-0.0 size=N/A time=00:19:58.44 bitrate=N/A speed=8.15x    frame=28840 fps=195 q=-0.0 size=N/A time=00:20:02.86 bitrate=N/A speed=8.15x    frame=28943 fps=196 q=-0.0 size=N/A time=00:20:07.16 bitrate=N/A speed=8.15x    frame=29048 fps=196 q=-0.0 size=N/A time=00:20:11.54 bitrate=N/A speed=8.15x    frame=29152 fps=196 q=-0.0 size=N/A time=00:20:15.88 bitrate=N/A speed=8.16x    frame=29258 fps=196 q=-0.0 size=N/A time=00:20:20.30 bitrate=N/A speed=8.16x    frame=29356 fps=196 q=-0.0 size=N/A time=00:20:24.38 bitrate=N/A speed=8.16x    frame=29457 fps=196 q=-0.0 size=N/A time=00:20:28.60 bitrate=N/A speed=8.16x    frame=29556 fps=196 q=-0.0 size=N/A time=00:20:32.73 bitrate=N/A speed=8.16x    frame=29653 fps=196 q=-0.0 size=N/A time=00:20:36.77 bitrate=N/A speed=8.15x    frame=29747 fps=195 q=-0.0 size=N/A time=00:20:40.69 bitrate=N/A speed=8.15x    frame=29855 fps=196 q=-0.0 size=N/A time=00:20:45.20 bitrate=N/A speed=8.15x    frame=29960 fps=196 q=-0.0 size=N/A time=00:20:49.58 bitrate=N/A speed=8.16x    frame=30063 fps=196 q=-0.0 size=N/A time=00:20:53.87 bitrate=N/A speed=8.16x    frame=30170 fps=196 q=-0.0 size=N/A time=00:20:58.34 bitrate=N/A speed=8.16x    frame=30269 fps=196 q=-0.0 size=N/A time=00:21:02.46 bitrate=N/A speed=8.16x    frame=30374 fps=196 q=-0.0 size=N/A time=00:21:06.84 bitrate=N/A speed=8.16x    frame=30480 fps=196 q=-0.0 size=N/A time=00:21:11.27 bitrate=N/A speed=8.16x    frame=30585 fps=196 q=-0.0 size=N/A time=00:21:15.64 bitrate=N/A speed=8.16x    frame=30689 fps=196 q=-0.0 size=N/A time=00:21:19.98 bitrate=N/A speed=8.16x    frame=30788 fps=196 q=-0.0 size=N/A time=00:21:24.11 bitrate=N/A speed=8.16x    frame=30891 fps=196 q=-0.0 size=N/A time=00:21:28.41 bitrate=N/A speed=8.16x    frame=30982 fps=196 q=-0.0 size=N/A time=00:21:32.20 bitrate=N/A speed=8.16x    frame=31097 fps=196 q=-0.0 size=N/A time=00:21:37.00 bitrate=N/A speed=8.16x    frame=31200 fps=196 q=-0.0 size=N/A time=00:21:41.30 bitrate=N/A speed=8.16x    frame=31294 fps=196 q=-0.0 size=N/A time=00:21:45.22 bitrate=N/A speed=8.16x    frame=31396 fps=196 q=-0.0 size=N/A time=00:21:49.47 bitrate=N/A speed=8.16x    frame=31488 fps=196 q=-0.0 size=N/A time=00:21:53.31 bitrate=N/A speed=8.16x    frame=31580 fps=196 q=-0.0 size=N/A time=00:21:57.14 bitrate=N/A speed=8.16x    frame=31673 fps=196 q=-0.0 size=N/A time=00:22:01.02 bitrate=N/A speed=8.15x    frame=31784 fps=196 q=-0.0 size=N/A time=00:22:05.65 bitrate=N/A speed=8.16x    frame=31880 fps=196 q=-0.0 size=N/A time=00:22:09.66 bitrate=N/A speed=8.16x    frame=31975 fps=196 q=-0.0 size=N/A time=00:22:13.62 bitrate=N/A speed=8.15x    frame=32058 fps=195 q=-0.0 size=N/A time=00:22:17.08 bitrate=N/A speed=8.15x    frame=32158 fps=195 q=-0.0 size=N/A time=00:22:21.25 bitrate=N/A speed=8.15x    frame=32248 fps=195 q=-0.0 size=N/A time=00:22:25.01 bitrate=N/A speed=8.15x    frame=32345 fps=195 q=-0.0 size=N/A time=00:22:29.05 bitrate=N/A speed=8.15x    frame=32445 fps=195 q=-0.0 size=N/A time=00:22:33.22 bitrate=N/A speed=8.15x    frame=32547 fps=195 q=-0.0 size=N/A time=00:22:37.48 bitrate=N/A speed=8.15x    frame=32641 fps=195 q=-0.0 size=N/A time=00:22:41.40 bitrate=N/A speed=8.15x    frame=32739 fps=195 q=-0.0 size=N/A time=00:22:45.48 bitrate=N/A speed=8.14x    frame=32832 fps=195 q=-0.0 size=N/A time=00:22:49.36 bitrate=N/A speed=8.14x    frame=32927 fps=195 q=-0.0 size=N/A time=00:22:53.33 bitrate=N/A speed=8.14x    frame=33025 fps=195 q=-0.0 size=N/A time=00:22:57.41 bitrate=N/A speed=8.14x    frame=33129 fps=195 q=-0.0 size=N/A time=00:23:01.75 bitrate=N/A speed=8.14x    frame=33230 fps=195 q=-0.0 size=N/A time=00:23:05.96 bitrate=N/A speed=8.14x    frame=33327 fps=195 q=-0.0 size=N/A time=00:23:10.01 bitrate=N/A speed=8.14x    frame=33430 fps=195 q=-0.0 size=N/A time=00:23:14.30 bitrate=N/A speed=8.14x    frame=33531 fps=195 q=-0.0 size=N/A time=00:23:18.52 bitrate=N/A speed=8.14x    frame=33628 fps=195 q=-0.0 size=N/A time=00:23:22.56 bitrate=N/A speed=8.14x    frame=33736 fps=195 q=-0.0 size=N/A time=00:23:27.07 bitrate=N/A speed=8.14x    frame=33829 fps=195 q=-0.0 size=N/A time=00:23:30.95 bitrate=N/A speed=8.14x    frame=33935 fps=195 q=-0.0 size=N/A time=00:23:35.37 bitrate=N/A speed=8.14x    frame=34032 fps=195 q=-0.0 size=N/A time=00:23:39.41 bitrate=N/A speed=8.14x    [Parsed_psnr_10 @ 00000191fd379d80] PSNR y:44.738077 u:49.892321 v:50.024978 average:45.890873 min:38.763778 max:inf
[out#0/null @ 00000191face1cc0] video:14644KiB audio:266536KiB subtitle:0KiB other streams:0KiB global headers:0KiB muxing overhead: unknown
frame=34081 fps=195 q=-0.0 Lsize=N/A time=00:23:41.46 bitrate=N/A speed=8.14x    
